<?xml version="1.0" encoding="UTF-8"?>
<svg width="158px" height="186px" viewBox="0 0 158 186" version="1.1" xmlns="http://www.w3.org/2000/svg" xmlns:xlink="http://www.w3.org/1999/xlink">
    <!-- Generator: Sketch 63.1 (92452) - https://sketch.com -->
    <title>icon-2</title>
    <desc>Created with Sketch.</desc>
    <g id="Page-1" stroke="none" stroke-width="1" fill="none" fill-rule="evenodd">
        <g id="Artboard" transform="translate(-614.000000, -44.000000)" fill="#1A1919">
            <g id="icon-2" transform="translate(614.000000, 44.000000)">
                <path d="M66.628,3.6575 C56.565,3.6575 46.198,7.5455 38.187,14.3245 C30.273,21.0195 25.657,29.5665 25.031,38.5855 C10.177,43.7985 7.10542736e-15,57.8075 7.10542736e-15,73.4565 C7.10542736e-15,81.0955 2.316,88.3375 6.724,94.5515 C2.316,100.7635 7.10542736e-15,108.0055 7.10542736e-15,115.6445 C7.10542736e-15,131.1965 10.052,145.1295 24.755,150.4175 C24.787,150.4935 24.821,150.5675 24.86,150.6415 C24.922,150.7625 24.992,150.8795 25.067,150.9885 C25.819,159.8335 30.411,168.1985 38.187,174.7765 C46.198,181.5555 56.565,185.4435 66.628,185.4435 C68.426,185.4435 69.884,183.9875 69.884,182.1885 L69.884,6.9135 C69.884,5.1155 68.426,3.6575 66.628,3.6575 M31.607,150.8165 L43.628,144.5975 C45.225,143.7715 45.85,141.8075 45.024,140.2115 C44.197,138.6145 42.232,137.9895 40.636,138.8145 L28.861,144.9075 C15.688,141.1005 6.51,129.1045 6.51,115.6445 C6.51,109.6485 8.252,103.9475 11.571,98.9915 L22.704,105.8525 C23.236,106.1805 23.826,106.3375 24.408,106.3375 C25.501,106.3375 26.567,105.7885 27.183,104.7905 C28.126,103.2595 27.65,101.2535 26.119,100.3095 L13.238,92.3715 C8.836,86.9245 6.51,80.3865 6.51,73.4565 C6.51,60.8385 14.577,49.5065 26.439,45.0035 L34.359,55.8915 L22.115,78.9465 C21.272,80.5345 21.875,82.5055 23.463,83.3475 C23.95,83.6065 24.473,83.7285 24.987,83.7285 C26.153,83.7285 27.28,83.1005 27.865,82.0005 L38.62,61.7515 L42.749,67.4285 C43.386,68.3035 44.378,68.7685 45.384,68.7685 C46.048,68.7685 46.718,68.5655 47.297,68.1445 C48.751,67.0885 49.072,65.0525 48.015,63.5975 L31.482,40.8665 C31.48,40.7895 31.475,40.7125 31.469,40.6285 C31.517,27.0205 44.937,11.9235 63.373,10.3095 L63.373,76.4885 L48.152,81.5545 C46.446,82.1245 45.524,83.9675 46.091,85.6735 C46.546,87.0375 47.816,87.9005 49.18,87.9005 C49.521,87.9005 49.868,87.8465 50.209,87.7325 L63.373,83.3495 L63.373,130.7705 L45.931,119.5345 L39.947,104.0305 C39.299,102.3515 37.417,101.5155 35.737,102.1655 C34.06,102.8115 33.225,104.6975 33.872,106.3745 L40.238,122.8695 C40.487,123.5115 40.933,124.0595 41.513,124.4325 L63.373,138.5165 L63.373,178.7925 C45.99,177.2695 33.066,163.7615 31.607,150.8165" id="Fill-6998"></path>
                <path d="M97.5816,36.1438 L97.5816,54.0808 C93.9046,54.9228 91.1516,58.2138 91.1516,62.1428 C91.1516,66.7088 94.8656,70.4228 99.4306,70.4228 C103.9966,70.4228 107.7106,66.7088 107.7106,62.1428 C107.7106,59.3058 106.2746,56.7988 104.0926,55.3068 L104.0926,38.0828 L113.5396,32.9668 L114.4356,36.6198 C112.9746,38.1128 112.0696,40.1518 112.0696,42.4008 C112.0696,46.9668 115.7846,50.6808 120.3496,50.6808 C124.9146,50.6808 128.6296,46.9668 128.6296,42.4008 C128.6296,37.8968 125.0116,34.2278 120.5286,34.1308 L118.8566,27.3198 C118.6166,26.3408 117.9356,25.5278 117.0136,25.1208 C116.0916,24.7108 115.0316,24.7538 114.1456,25.2338 L99.2876,33.2818 C98.2356,33.8498 97.5816,34.9498 97.5816,36.1438 M120.3496,39.1038 C122.1686,39.1038 123.6476,40.5828 123.6476,42.4008 C123.6476,44.2198 122.1686,45.7008 120.3496,45.7008 C118.5316,45.7008 117.0516,44.2198 117.0516,42.4008 C117.0516,40.5828 118.5316,39.1038 120.3496,39.1038 M102.7296,62.1428 C102.7296,63.9618 101.2496,65.4418 99.4306,65.4418 C97.6126,65.4418 96.1326,63.9618 96.1326,62.1428 C96.1326,60.3258 97.6126,58.8448 99.4306,58.8448 C101.2496,58.8448 102.7296,60.3258 102.7296,62.1428" id="Fill-7000"></path>
                <path d="M77.3179,15.889 L77.3179,79.633 C77.3179,81.43 78.7759,82.888 80.5729,82.888 L100.1959,82.888 C101.5079,85.731 104.3789,87.714 107.7099,87.714 C112.2759,87.714 115.9899,83.999 115.9899,79.434 C115.9899,74.869 112.2759,71.156 107.7099,71.156 C104.2249,71.156 101.2419,73.323 100.0229,76.377 L83.8289,76.377 L83.8289,15.89 C85.7989,15.044 87.3769,13.456 88.2089,11.479 L95.8089,15.289 C95.7449,15.704 95.7019,16.125 95.7019,16.558 C95.7019,21.123 99.4159,24.838 103.9809,24.838 C108.5469,24.838 112.2599,21.123 112.2599,16.558 C112.2599,11.993 108.5469,8.28 103.9809,8.28 C102.2369,8.28 100.6199,8.825 99.2839,9.748 L87.8209,4.003 C87.7459,3.965 87.6669,3.934 87.5889,3.904 C86.1249,1.563 83.5319,-2.84217094e-14 80.5739,-2.84217094e-14 C76.0089,-2.84217094e-14 72.2939,3.714 72.2939,8.28 C72.2939,11.688 74.3669,14.622 77.3179,15.889 M107.7099,76.136 C109.5289,76.136 111.0089,77.616 111.0089,79.434 C111.0089,81.253 109.5289,82.732 107.7099,82.732 C105.8919,82.732 104.4119,81.253 104.4119,79.434 C104.4119,77.616 105.8919,76.136 107.7099,76.136 M103.9809,13.26 C105.7989,13.26 107.2789,14.74 107.2789,16.558 C107.2789,18.377 105.7989,19.856 103.9809,19.856 C102.1619,19.856 100.6829,18.377 100.6829,16.558 C100.6829,14.74 102.1619,13.26 103.9809,13.26 M80.5739,4.981 C82.3929,4.981 83.8719,6.46 83.8719,8.28 C83.8719,10.097 82.3929,11.577 80.5739,11.577 C78.7549,11.577 77.2749,10.097 77.2749,8.28 C77.2749,6.46 78.7549,4.981 80.5739,4.981" id="Fill-7002"></path>
                <path d="M107.71,159.053 C103.145,159.053 99.431,162.767 99.431,167.332 C99.431,168.233 99.58,169.096 99.846,169.908 L88.891,177.815 L83.83,174.016 L83.83,121.092 C86.78,119.824 88.854,116.891 88.854,113.482 C88.854,108.916 85.139,105.202 80.574,105.202 C76.009,105.202 72.294,108.916 72.294,113.482 C72.294,116.891 74.367,119.824 77.318,121.092 L77.318,175.643 C77.318,176.667 77.8,177.632 78.62,178.247 L86.899,184.46 C87.478,184.894 88.166,185.112 88.854,185.112 C89.521,185.112 90.189,184.907 90.758,184.496 L104.18,174.81 C105.252,175.32 106.446,175.613 107.71,175.613 C112.275,175.613 115.99,171.898 115.99,167.332 C115.99,162.767 112.275,159.053 107.71,159.053 M80.574,116.78 C78.755,116.78 77.275,115.3 77.275,113.482 C77.275,111.662 78.755,110.183 80.574,110.183 C82.393,110.183 83.872,111.662 83.872,113.482 C83.872,115.3 82.393,116.78 80.574,116.78 M107.71,170.63 C105.892,170.63 104.412,169.152 104.412,167.332 C104.412,165.514 105.892,164.034 107.71,164.034 C109.529,164.034 111.009,165.514 111.009,167.332 C111.009,169.152 109.529,170.63 107.71,170.63" id="Fill-7004"></path>
                <path d="M149.1074,59.7181 C145.7944,59.7181 142.9364,61.6791 141.6144,64.4981 L131.7624,64.4981 C130.4404,61.6791 127.5824,59.7181 124.2694,59.7181 C119.7034,59.7181 115.9894,63.4321 115.9894,67.9971 C115.9894,72.5621 119.7034,76.2771 124.2694,76.2771 C127.7714,76.2771 130.7654,74.0881 131.9734,71.0091 L141.4034,71.0091 C142.2834,73.2531 144.1134,75.0181 146.3994,75.8121 L146.3994,80.2381 L130.4904,95.2451 C129.4764,94.8021 128.3594,94.5521 127.1834,94.5521 C122.6184,94.5521 118.9034,98.2661 118.9034,102.8311 C118.9034,107.3961 122.6184,111.1101 127.1834,111.1101 C131.7494,111.1101 135.4624,107.3961 135.4624,102.8311 C135.4624,101.8311 135.2754,100.8771 134.9494,99.9891 L151.8884,84.0101 C152.5404,83.3951 152.9104,82.5381 152.9104,81.6421 L152.9104,75.3441 C155.5654,73.9641 157.3874,71.1911 157.3874,67.9971 C157.3874,63.4321 153.6734,59.7181 149.1074,59.7181 M124.2694,71.2961 C122.4504,71.2961 120.9704,69.8161 120.9704,67.9971 C120.9704,66.1791 122.4504,64.6981 124.2694,64.6981 C126.0874,64.6981 127.5674,66.1791 127.5674,67.9971 C127.5674,69.8161 126.0874,71.2961 124.2694,71.2961 M127.1834,106.1291 C125.3644,106.1291 123.8844,104.6501 123.8844,102.8311 C123.8844,101.0121 125.3644,99.5321 127.1834,99.5321 C129.0024,99.5321 130.4824,101.0121 130.4824,102.8311 C130.4824,104.6501 129.0024,106.1291 127.1834,106.1291 M149.1074,71.2961 C147.2884,71.2961 145.8094,69.8161 145.8094,67.9971 C145.8094,66.1791 147.2884,64.6981 149.1074,64.6981 C150.9264,64.6981 152.4054,66.1791 152.4054,67.9971 C152.4054,69.8161 150.9264,71.2961 149.1074,71.2961" id="Fill-7006"></path>
                <path d="M143.0918,110.1468 C139.8358,110.1468 137.0208,112.0408 135.6698,114.7818 L113.3418,114.7818 L107.2608,110.2388 C107.5478,109.3998 107.7108,108.5038 107.7108,107.5698 C107.7108,103.0038 103.9958,99.2908 99.4308,99.2908 C94.8648,99.2908 91.1518,103.0038 91.1518,107.5698 C91.1518,112.1348 94.8648,115.8488 99.4308,115.8488 C100.6608,115.8488 101.8258,115.5728 102.8758,115.0878 L110.3128,120.6448 C110.8758,121.0658 111.5588,121.2928 112.2608,121.2928 L135.3348,121.2928 C135.7128,122.3108 136.2828,123.2338 137.0048,124.0188 L130.7688,138.6828 L107.5688,138.6828 C106.8628,134.8288 103.4858,131.8958 99.4308,131.8958 C94.8648,131.8958 91.1518,135.6098 91.1518,140.1738 C91.1518,144.7408 94.8648,148.4548 99.4308,148.4548 C102.1088,148.4548 104.4868,147.1708 106.0008,145.1938 L132.9218,145.1938 C134.2268,145.1938 135.4068,144.4138 135.9178,143.2108 L142.9418,126.6978 C142.9918,126.6988 143.0408,126.7058 143.0918,126.7058 C147.6568,126.7058 151.3718,122.9908 151.3718,118.4248 C151.3718,113.8608 147.6568,110.1468 143.0918,110.1468 M99.4308,110.8688 C97.6128,110.8688 96.1328,109.3878 96.1328,107.5698 C96.1328,105.7508 97.6128,104.2718 99.4308,104.2718 C101.2498,104.2718 102.7298,105.7508 102.7298,107.5698 C102.7298,109.3878 101.2498,110.8688 99.4308,110.8688 M99.4308,143.4728 C97.6128,143.4728 96.1328,141.9938 96.1328,140.1738 C96.1328,138.3568 97.6128,136.8758 99.4308,136.8758 C101.2498,136.8758 102.7298,138.3568 102.7298,140.1738 C102.7298,141.9938 101.2498,143.4728 99.4308,143.4728 M143.0918,121.7238 C141.2738,121.7238 139.7938,120.2448 139.7938,118.4248 C139.7938,116.6078 141.2738,115.1268 143.0918,115.1268 C144.9108,115.1268 146.3908,116.6078 146.3908,118.4248 C146.3908,120.2448 144.9108,121.7238 143.0918,121.7238" id="Fill-7008"></path>
            </g>
        </g>
    </g>
</svg>