<?xml version="1.0" encoding="UTF-8"?>
<svg width="189px" height="183px" viewBox="0 0 189 183" version="1.1" xmlns="http://www.w3.org/2000/svg" xmlns:xlink="http://www.w3.org/1999/xlink">
    <!-- Generator: Sketch 63.1 (92452) - https://sketch.com -->
    <title>Icon-3</title>
    <desc>Created with Sketch.</desc>
    <g id="Page-1" stroke="none" stroke-width="1" fill="none" fill-rule="evenodd">
        <g id="Artboard" transform="translate(-288.000000, -350.000000)" fill="#1A1919">
            <g id="Icon-3" transform="translate(288.000000, 350.000000)">
                <path d="M171.095,0 L17.375,0 C7.794,0 -3.26849658e-13,7.794 -3.26849658e-13,17.375 L-3.26849658e-13,128.07 C-3.26849658e-13,137.651 7.794,145.445 17.375,145.445 L90.979,145.445 L90.979,175.825 L41.711,175.825 C39.913,175.825 38.456,177.283 38.456,179.08 C38.456,180.878 39.913,182.336 41.711,182.336 L146.759,182.336 C148.557,182.336 150.015,180.878 150.015,179.08 C150.015,177.283 148.557,175.825 146.759,175.825 L97.491,175.825 L97.491,145.445 L171.095,145.445 C180.676,145.445 188.47,137.651 188.47,128.07 L188.47,17.375 C188.47,7.794 180.676,0 171.095,0 L171.095,0 Z M181.959,128.07 C181.959,134.06 177.085,138.934 171.095,138.934 L17.375,138.934 C11.385,138.934 6.512,134.06 6.512,128.07 L6.512,17.375 C6.512,11.385 11.385,6.511 17.375,6.511 L171.095,6.511 C177.085,6.511 181.959,11.385 181.959,17.375 L181.959,128.07 Z" id="Fill-6964"></path>
                <path d="M174.5705,117.2871 L95.8955,117.2871 L95.8955,22.4131 C95.8955,20.6141 94.4385,19.1571 92.6395,19.1571 C90.8415,19.1571 89.3845,20.6141 89.3845,22.4131 L89.3845,120.5421 C89.3845,122.3401 90.8415,123.7981 92.6395,123.7981 L174.5705,123.7981 C176.3685,123.7981 177.8255,122.3401 177.8255,120.5421 C177.8255,118.7451 176.3685,117.2871 174.5705,117.2871" id="Fill-6966"></path>
                <path d="M101.2273,113.3613 C101.4883,113.4253 101.7483,113.4563 102.0053,113.4563 C103.4703,113.4563 104.8003,112.4623 105.1643,110.9753 L108.8373,96.0083 L109.7823,98.6113 C110.2893,100.0093 111.6803,100.8823 113.1603,100.7423 C114.6403,100.5963 115.8343,99.4663 116.0603,97.9973 L119.3883,76.3563 L130.8253,105.1353 C131.3513,106.4613 132.6833,107.2903 134.1013,107.1783 C135.5233,107.0683 136.7083,106.0463 137.0243,104.6563 L142.1613,82.0793 L144.4863,85.8503 C145.1833,86.9823 146.5013,87.5783 147.8093,87.3513 C149.1203,87.1263 150.1613,86.1263 150.4403,84.8263 L159.3873,43.1273 L166.8573,73.7033 C167.2853,75.4493 169.0453,76.5203 170.7923,76.0913 C172.5393,75.6663 173.6093,73.9043 173.1833,72.1573 L162.3443,27.7953 C161.9833,26.3203 160.6533,25.2873 159.1353,25.3118559 C157.6173,25.3353 156.3163,26.4003 155.9983,27.8843 L145.7753,75.5323 L143.5253,71.8813 C142.8313,70.7553 141.5253,70.1603 140.2223,70.3773 C138.9173,70.5933 137.8733,71.5783 137.5803,72.8673 L133.0023,92.9843 L121.0163,62.8233 C120.4743,61.4573 119.0713,60.6253 117.6243,60.7903 C116.1653,60.9553 114.9963,62.0783 114.7723,63.5293 L111.5603,84.4233 L111.2953,83.6923 C110.8053,82.3443 109.4923,81.4763 108.0603,81.5523 C106.6283,81.6303 105.4143,82.6343 105.0733,84.0273 L98.8413,109.4243 C98.4133,111.1713 99.4813,112.9333 101.2273,113.3613" id="Fill-6968"></path>
                <path d="M48.4407,21.6484 C28.9717,21.6484 13.1337,37.4864 13.1337,56.9544 C13.1337,76.4214 28.9717,92.2604 48.4407,92.2604 C67.9077,92.2604 83.7467,76.4214 83.7467,56.9544 C83.7467,37.4864 67.9077,21.6484 48.4407,21.6484 M77.1947,55.4374 L51.7917,55.4374 L51.7917,28.3604 C65.6027,29.9684 76.4617,41.3814 77.1947,55.4374 M48.4407,85.7504 C32.5627,85.7504 19.6447,72.8324 19.6447,56.9544 C19.6447,42.1434 30.8847,29.9154 45.2807,28.3354 L45.2807,58.6934 C45.2807,60.4914 46.7377,61.9494 48.5367,61.9494 L76.7927,61.9494 C74.4197,75.4534 62.6137,85.7504 48.4407,85.7504" id="Fill-6970"></path>
                <path d="M76.6848,98.169 L21.0548,98.169 C19.2558,98.169 17.7988,99.627 17.7988,101.425 L17.7988,120.541 C17.7988,122.34 19.2558,123.798 21.0548,123.798 L76.6848,123.798 C78.4828,123.798 79.9398,122.34 79.9398,120.541 L79.9398,101.425 C79.9398,99.627 78.4828,98.169 76.6848,98.169 L76.6848,98.169 Z M24.3098,117.286 L73.4288,117.286 L73.4288,104.68 L24.3098,104.68 L24.3098,117.286 Z" id="Fill-6972"></path>
            </g>
        </g>
    </g>
</svg>