<svg id="Layer_1" data-name="Layer 1" xmlns="http://www.w3.org/2000/svg" viewBox="0 0 238.56 194.5"><defs><style>.cls-1{fill:#010101;}</style></defs><path class="cls-1" d="M82,95.88a46.4,46.4,0,0,0,33.82-14.25l-9.32-9.85A34.52,34.52,0,0,1,82,81.9C63,81.9,48.66,67,48.66,47.94S63,14,82,14A34.79,34.79,0,0,1,106.58,24.1l9.06-10A46.27,46.27,0,0,0,82,0C53.72,0,33.61,21.44,33.61,47.94S53.72,95.88,82,95.88"/><path class="cls-1" d="M152.66,16h-.26a32,32,0,1,0,0,63.92h.26c18.11,0,32.36-14.11,32.36-32S170.77,16,152.66,16Zm-.1,37.51h-.08a5.55,5.55,0,0,1,0-11.1h.08a5.55,5.55,0,0,1,0,11.1Z"/><polyline class="cls-1" points="65.25 129.3 13.96 129.3 13.99 49.27 0 49.27 0 142.49 65.25 142.49"/><path class="cls-1" d="M122.2,102.45H105.72a30.63,30.63,0,1,0,0,61.26H122.2a13.88,13.88,0,0,0,13.88-13.88v-33.5A13.87,13.87,0,0,0,122.2,102.45Zm-14.3,48.66h-.26a18,18,0,0,1,0-36.06h.26a18,18,0,0,1,0,36.06Z"/><path class="cls-1" d="M177.35,133.25H166.61a6.58,6.58,0,0,1-6.58-6.58V107.86a6.58,6.58,0,0,0-6.58-6.58,6.74,6.74,0,0,0-6.74,6.74v79.9a6.58,6.58,0,0,0,6.58,6.58H181c7.51,0,17-5.14,21.05-11.48C217.51,158.72,200.39,133.25,177.35,133.25Zm.08,42h-.16a11.37,11.37,0,0,1,0-22.74h.16a11.37,11.37,0,0,1,0,22.74Z"/><path class="cls-1" d="M206.2,69.16h-.26a32,32,0,1,0,0,63.92h.26c18.11,0,32.36-14.11,32.36-32S224.31,69.16,206.2,69.16Zm0,53h-.3a21,21,0,0,1,0-42h.3a21,21,0,0,1,0,42Z"/></svg>