<?xml version="1.0" encoding="UTF-8"?>
<svg width="155px" height="172px" viewBox="0 0 155 172" version="1.1" xmlns="http://www.w3.org/2000/svg" xmlns:xlink="http://www.w3.org/1999/xlink">
    <!-- Generator: Sketch 63.1 (92452) - https://sketch.com -->
    <title>Fill 6996</title>
    <desc>Created with Sketch.</desc>
    <g id="Page-1" stroke="none" stroke-width="1" fill="none" fill-rule="evenodd">
        <g id="Artboard" transform="translate(-43.000000, -291.000000)" fill="#1A1919">
            <path d="M189.601,397.752 C191.604,391.127 192.69,384.108 192.69,376.838 C192.69,369.796 191.667,362.99 189.784,356.549 C194.195,353.62 197.11,348.61 197.11,342.929 C197.11,333.919 189.779,326.589 180.769,326.589 C178.283,326.589 175.925,327.149 173.814,328.148 C164.066,317.44 151.163,309.656 136.585,306.289 C136.04,297.768 128.939,291 120.283,291 C111.626,291 104.525,297.768 103.98,306.288 C89.331,309.672 76.373,317.514 66.609,328.3 C64.419,327.207 61.951,326.589 59.341,326.589 C50.33,326.589 43,333.919 43,342.929 C43,348.773 46.084,353.906 50.708,356.795 C48.87,363.163 47.874,369.886 47.874,376.838 C47.874,384.02 48.934,390.955 50.892,397.507 C46.164,400.374 43,405.569 43,411.489 C43,420.499 50.33,427.83 59.341,427.83 C62.135,427.83 64.767,427.124 67.07,425.882 C76.78,436.408 89.561,444.058 103.979,447.388 C104.524,455.909 111.625,462.677 120.283,462.677 C128.939,462.677 136.04,455.909 136.585,447.388 C150.932,444.073 163.658,436.486 173.35,426.041 C175.578,427.183 178.099,427.83 180.769,427.83 C189.779,427.83 197.11,420.499 197.11,411.489 C197.11,405.731 194.113,400.663 189.601,397.752 M186.87,376.838 C186.87,383.32 185.926,389.583 184.189,395.511 C183.085,395.275 181.942,395.148 180.769,395.148 C176.44,395.148 172.502,396.843 169.576,399.601 L161.111,393.347 C162.187,391.169 162.793,388.722 162.793,386.133 C162.793,382.01 161.255,378.241 158.726,375.362 L173.05,357.328 C175.35,358.566 177.978,359.271 180.769,359.271 C182.013,359.271 183.223,359.126 184.387,358.862 C185.996,364.583 186.87,370.609 186.87,376.838 M120.283,429.995 C119.466,429.995 118.663,430.058 117.878,430.174 L102.027,383.391 C104.772,381.863 107.035,379.569 108.521,376.799 L130.268,383.906 C130.167,384.635 130.112,385.378 130.112,386.133 C130.112,391.799 133.012,396.799 137.403,399.731 L124.031,430.435 C122.826,430.15 121.573,429.995 120.283,429.995 M84.282,369.101 C84.282,363.681 88.692,359.271 94.112,359.271 C99.532,359.271 103.942,363.681 103.942,369.101 C103.942,374.521 99.532,378.931 94.112,378.931 C88.692,378.931 84.282,374.521 84.282,369.101 M120.283,323.683 C121.066,323.683 121.834,323.623 122.589,323.517 L138.622,371.795 C135.839,373.321 133.546,375.634 132.044,378.434 L110.296,371.327 C110.397,370.6 110.453,369.856 110.453,369.101 C110.453,363.378 107.495,358.337 103.029,355.417 L116.679,323.277 C117.839,323.539 119.043,323.683 120.283,323.683 M136.622,386.133 C136.622,380.713 141.033,376.304 146.453,376.304 C151.872,376.304 156.283,380.713 156.283,386.133 C156.283,391.554 151.872,395.963 146.453,395.963 C141.033,395.963 136.622,391.554 136.622,386.133 M190.599,342.929 C190.599,348.351 186.189,352.759 180.769,352.759 C175.349,352.759 170.939,348.351 170.939,342.929 C170.939,337.509 175.349,333.101 180.769,333.101 C186.189,333.101 190.599,337.509 190.599,342.929 M135.91,312.116 C148.827,315.235 160.281,322.131 169.043,331.564 C166.19,334.507 164.428,338.516 164.428,342.929 C164.428,347.054 165.967,350.823 168.497,353.702 L154.173,371.736 C151.872,370.497 149.244,369.792 146.453,369.792 C145.669,369.792 144.9,369.852 144.146,369.958 L128.111,321.681 C131.816,319.649 134.652,316.226 135.91,312.116 M120.283,297.511 C125.703,297.511 130.112,301.921 130.112,307.341 C130.112,312.761 125.703,317.171 120.283,317.171 C114.863,317.171 110.453,312.761 110.453,307.341 C110.453,301.921 114.863,297.511 120.283,297.511 M104.656,312.117 C105.783,315.799 108.18,318.931 111.331,321.002 L97.704,353.162 C96.546,352.901 95.346,352.759 94.112,352.759 C89.835,352.759 85.939,354.413 83.023,357.112 L73.934,350.271 C75.049,348.062 75.682,345.568 75.682,342.929 C75.682,338.633 74.012,334.72 71.29,331.8 C80.084,322.244 91.627,315.263 104.656,312.117 M59.341,333.101 C64.761,333.101 69.171,337.509 69.171,342.929 C69.171,348.351 64.761,352.759 59.341,352.759 C53.92,352.759 49.511,348.351 49.511,342.929 C49.511,337.509 53.92,333.101 59.341,333.101 M53.695,376.838 C53.695,370.644 54.558,364.649 56.15,358.955 C57.183,359.161 58.249,359.271 59.341,359.271 C63.618,359.271 67.514,357.617 70.43,354.918 L79.519,361.759 C78.404,363.968 77.771,366.461 77.771,369.101 C77.771,373.132 79.242,376.824 81.67,379.677 L67.284,397.216 C64.931,395.901 62.223,395.148 59.341,395.148 C58.319,395.148 57.32,395.247 56.35,395.429 C54.629,389.524 53.695,383.29 53.695,376.838 M49.511,411.489 C49.511,406.069 53.92,401.659 59.341,401.659 C64.761,401.659 69.171,406.069 69.171,411.489 C69.171,416.909 64.761,421.319 59.341,421.319 C53.92,421.319 49.511,416.909 49.511,411.489 M104.656,441.561 C91.794,438.455 80.384,431.607 71.634,422.237 C74.151,419.361 75.682,415.603 75.682,411.489 C75.682,407.457 74.211,403.766 71.782,400.912 L86.168,383.373 C88.522,384.689 91.23,385.441 94.112,385.441 C94.928,385.441 95.73,385.379 96.515,385.264 L112.368,432.047 C108.705,434.083 105.904,437.485 104.656,441.561 M120.283,456.166 C114.863,456.166 110.453,451.756 110.453,446.336 C110.453,440.916 114.863,436.506 120.283,436.506 C125.703,436.506 130.112,440.916 130.112,446.336 C130.112,451.756 125.703,456.166 120.283,456.166 M135.909,441.56 C134.796,437.926 132.45,434.829 129.36,432.756 L142.714,402.037 C143.915,402.32 145.165,402.475 146.453,402.475 C150.782,402.475 154.72,400.779 157.646,398.023 L166.111,404.276 C165.035,406.453 164.428,408.901 164.428,411.489 C164.428,415.722 166.044,419.583 168.695,422.488 C159.977,431.73 148.655,438.482 135.909,441.56 M180.769,421.319 C175.349,421.319 170.939,416.909 170.939,411.489 C170.939,406.069 175.349,401.659 180.769,401.659 C186.189,401.659 190.599,406.069 190.599,411.489 C190.599,416.909 186.189,421.319 180.769,421.319" id="Fill-6996"></path>
        </g>
    </g>
</svg>