<?xml version="1.0" encoding="UTF-8"?>
<svg width="171px" height="171px" viewBox="0 0 171 171" version="1.1" xmlns="http://www.w3.org/2000/svg" xmlns:xlink="http://www.w3.org/1999/xlink">
    <!-- Generator: Sketch 63.1 (92452) - https://sketch.com -->
    <title>Icon-1</title>
    <desc>Created with Sketch.</desc>
    <g id="Page-1" stroke="none" stroke-width="1" fill="none" fill-rule="evenodd">
        <g id="Artboard" transform="translate(-43.000000, -29.000000)" fill="#1A1919">
            <g id="Icon-1" transform="translate(43.000000, 29.000000)">
                <path d="M167.356,68.376 C165.558,68.376 164.101,69.834 164.101,71.631 L164.101,82.051 L143.168,82.051 C142.415,68.52 136.998,56.213 128.502,46.714 L143.324,31.893 L150.692,39.26 C151.328,39.896 152.161,40.213 152.994,40.213 C153.827,40.213 154.661,39.896 155.295,39.26 C156.567,37.989 156.567,35.927 155.295,34.656 L135.956,15.316 C134.686,14.045 132.623,14.045 131.352,15.316 C130.081,16.588 130.081,18.649 131.352,19.921 L138.72,27.288 L123.898,42.11 C114.399,33.614 102.093,28.197 88.561,27.444 L88.561,6.511 L98.981,6.511 C100.779,6.511 102.236,5.055 102.236,3.256 C102.236,1.458 100.779,8.52651283e-14 98.981,8.52651283e-14 L71.629,8.52651283e-14 C69.832,8.52651283e-14 68.375,1.458 68.375,3.256 C68.375,5.055 69.832,6.511 71.629,6.511 L82.05,6.511 L82.05,27.444 C68.518,28.197 56.211,33.614 46.712,42.11 L31.891,27.288 L39.259,19.921 C40.53,18.649 40.53,16.588 39.259,15.316 C37.988,14.045 35.926,14.045 34.655,15.316 L24.987,24.985 C24.986,24.985 24.986,24.985 24.985,24.986 C24.984,24.987 24.984,24.987 24.984,24.988 L15.316,34.656 C14.044,35.927 14.044,37.989 15.316,39.26 C15.951,39.896 16.785,40.213 17.618,40.213 C18.451,40.213 19.284,39.896 19.919,39.26 L27.287,31.893 L42.108,46.714 C33.613,56.213 28.196,68.52 27.443,82.051 L6.511,82.051 L6.511,71.631 C6.511,69.834 5.053,68.376 3.255,68.376 C1.457,68.376 -5.68434189e-14,69.834 -5.68434189e-14,71.631 L-5.68434189e-14,98.982 C-5.68434189e-14,100.779 1.457,102.237 3.255,102.237 C5.053,102.237 6.511,100.779 6.511,98.982 L6.511,88.563 L27.443,88.563 C28.196,102.094 33.613,114.4 42.108,123.899 L27.287,138.721 L19.919,131.354 C18.649,130.082 16.586,130.082 15.316,131.354 C14.044,132.625 14.044,134.687 15.316,135.957 L24.984,145.626 L24.985,145.627 L24.986,145.628 L34.655,155.297 C35.29,155.934 36.124,156.251 36.957,156.251 C37.79,156.251 38.624,155.934 39.259,155.297 C40.53,154.026 40.53,151.964 39.259,150.693 L31.891,143.325 L46.712,128.503 C56.211,136.999 68.518,142.416 82.05,143.169 L82.05,164.103 L71.629,164.103 C69.832,164.103 68.375,165.56 68.375,167.357 C68.375,169.155 69.832,170.613 71.629,170.613 L98.981,170.613 C100.779,170.613 102.236,169.155 102.236,167.357 C102.236,165.56 100.779,164.103 98.981,164.103 L88.561,164.103 L88.561,143.169 C102.093,142.416 114.399,136.999 123.898,128.503 L138.72,143.325 L131.352,150.693 C130.081,151.964 130.081,154.026 131.352,155.297 C131.988,155.934 132.821,156.251 133.654,156.251 C134.487,156.251 135.321,155.934 135.956,155.297 L155.295,135.957 C156.567,134.687 156.567,132.625 155.295,131.354 C154.025,130.082 151.963,130.082 150.692,131.354 L143.324,138.721 L128.502,123.899 C136.998,114.4 142.415,102.094 143.168,88.563 L164.101,88.563 L164.101,98.982 C164.101,100.779 165.558,102.237 167.356,102.237 C169.154,102.237 170.611,100.779 170.611,98.982 L170.611,71.631 C170.611,69.834 169.154,68.376 167.356,68.376 M85.306,136.751 C56.939,136.751 33.861,113.673 33.861,85.308 C33.861,56.94 56.939,33.862 85.306,33.862 C113.672,33.862 136.75,56.94 136.75,85.308 C136.75,113.673 113.672,136.751 85.306,136.751" id="Fill-7010"></path>
                <path d="M103.4126,62.2237 C103.4126,54.3057 96.9716,47.8637 89.0536,47.8637 C81.1356,47.8637 74.6926,54.3057 74.6926,62.2237 C74.6926,70.1417 81.1356,76.5827 89.0536,76.5827 C96.9716,76.5827 103.4126,70.1417 103.4126,62.2237 M89.0536,70.0727 C84.7256,70.0727 81.2046,66.5517 81.2046,62.2237 C81.2046,57.8957 84.7256,54.3737 89.0536,54.3737 C93.3816,54.3737 96.9016,57.8957 96.9016,62.2237 C96.9016,66.5517 93.3816,70.0727 89.0536,70.0727" id="Fill-7012"></path>
                <path d="M66.8911,82.0518 C57.0611,82.0518 49.0641,90.0488 49.0641,99.8778 C49.0641,109.7068 57.0611,117.7048 66.8911,117.7048 C76.7211,117.7048 84.7181,109.7068 84.7181,99.8778 C84.7181,90.0488 76.7211,82.0518 66.8911,82.0518 M66.8911,111.1948 C60.6521,111.1948 55.5761,106.1168 55.5761,99.8778 C55.5761,93.6388 60.6521,88.5628 66.8911,88.5628 C73.1311,88.5628 78.2051,93.6388 78.2051,99.8778 C78.2051,106.1168 73.1311,111.1948 66.8911,111.1948" id="Fill-7014"></path>
                <path d="M106.0708,96.6231 C100.3658,96.6231 95.7248,101.2641 95.7248,106.9691 C95.7248,112.6741 100.3658,117.3141 106.0708,117.3141 C111.7758,117.3141 116.4168,112.6741 116.4168,106.9691 C116.4168,101.2641 111.7758,96.6231 106.0708,96.6231 M106.0708,110.8041 C103.9558,110.8041 102.2368,109.0841 102.2368,106.9691 C102.2368,104.8531 103.9558,103.1341 106.0708,103.1341 C108.1858,103.1341 109.9058,104.8531 109.9058,106.9691 C109.9058,109.0841 108.1858,110.8041 106.0708,110.8041" id="Fill-7016"></path>
            </g>
        </g>
    </g>
</svg>