<?xml version="1.0" encoding="UTF-8"?>
<svg width="410px" height="88px" viewBox="0 0 410 88" version="1.1" xmlns="http://www.w3.org/2000/svg" xmlns:xlink="http://www.w3.org/1999/xlink">
    <!-- Generator: Sketch 63.1 (92452) - https://sketch.com -->
    <title>Group</title>
    <desc>Created with Sketch.</desc>
    <g id="Page-1" stroke="none" stroke-width="1" fill="none" fill-rule="evenodd">
        <g id="Artboard" transform="translate(-168.000000, -1151.000000)" fill="#1A1919">
            <g id="Group" transform="translate(168.000000, 1151.000000)">
                <path d="M44.7139698,88 C57.0318258,88 68.1173869,83.1096976 76,74.9269647 L67.3790285,65.8791418 C61.5892797,71.6192679 53.5844556,75.1712254 44.7139698,75.1712254 C27.2225126,75.1712254 13.921876,61.4773608 13.921876,44.0025444 C13.921876,26.5226392 27.2225126,12.8338634 44.7139698,12.8338634 C53.5844556,12.8338634 61.7114908,16.3807321 67.5012395,22.1259469 L75.8777889,12.9559938 C68.1173869,4.88521367 57.0318258,0 44.7139698,0 C18.601541,0 0,19.6782513 0,44.0025444 C0,68.3268374 18.601541,88 44.7139698,88" id="Fill-1592"></path>
                <path d="M110.121993,29 C126.845137,29 140,42.0303609 140,58.494882 C140,74.9696391 126.845137,88 110.121993,88 L110.121993,88 L109.878007,88 C93.2768553,88 80,74.9696391 80,58.494882 C80,42.0303609 93.2768553,29 109.878007,29 L109.878007,29 Z M110.032226,54 L109.962816,54 C107.211205,54 105,56.216675 105,59.0024963 C105,61.7483774 107.211205,64 109.962816,64 L109.962816,64 L110.032226,64 C112.783837,64 115,61.7134299 115,59.0024963 C115,56.2516226 112.783837,54 110.032226,54 L110.032226,54 Z" id="Combined-Shape"></path>
                <polyline id="Fill-1595" points="218 74.8319258 170.051211 74.8319258 170.071796 1 157 1 157 87 218 87"></polyline>
                <path d="M292.270219,1 C295.651219,1 298.386756,3.71627409 298.386756,7.06174161 L298.386756,7.06174161 L298.386756,24.4182727 C298.386756,27.7637402 301.127415,30.4800143 304.508416,30.4800143 L304.508416,30.4800143 L314.497735,30.4800143 C335.936351,30.4800143 351.862911,53.9750178 337.503905,76.4111349 C333.759191,82.25803 324.896872,87 317.909471,87 L317.909471,87 L292.116537,87 C288.735537,87 286,84.2837259 286,80.933143 L286,80.933143 L286,7.21520343 C286,3.77765882 288.807255,1 292.270219,1 Z M314.032226,54 L313.962816,54 C311.211205,54 309,56.216675 309,59.0024963 C309,61.7483774 311.211205,64 313.962816,64 L313.962816,64 L314.032226,64 C316.783837,64 319,61.7134299 319,59.0024963 C319,56.2516226 316.783837,54 314.032226,54 L314.032226,54 Z" id="Combined-Shape"></path>
                <path d="M264.108421,31 C271.228948,31 277,36.6866685 277,43.6961716 L277,43.6961716 L277,74.3088967 C277,81.3234682 271.228948,87 264.108421,87 L264.108421,87 L248.809255,87 C232.733118,87 220,74.4609467 220,59.0076025 C220,43.54919 232.733118,31 248.809255,31 L248.809255,31 Z M249.594944,45 L249.405056,45 C241.978901,45 236,50.9850689 236,58.5051685 C236,65.9270674 241.978901,72 249.405056,72 L249.405056,72 L249.594944,72 C257.021099,72 263,65.8340352 263,58.5051685 C263,51.0781011 257.021099,45 249.594944,45 L249.594944,45 Z" id="Combined-Shape"></path>
                <path d="M380.121993,29 C396.845137,29 410,42.0303609 410,58.494882 C410,74.9696391 396.845137,88 380.121993,88 L380.121993,88 L379.878007,88 C363.276855,88 350,74.9696391 350,58.494882 C350,42.0303609 363.276855,29 379.878007,29 L379.878007,29 Z M379.63808,39 L379.36192,39 C368.637687,39 360,47.6323296 360,58.5 C360,69.2234548 368.637687,78 379.36192,78 L379.36192,78 L379.63808,78 C390.362313,78 399,69.0843899 399,58.5 C399,47.7765452 390.362313,39 379.63808,39 L379.63808,39 Z" id="Combined-Shape"></path>
            </g>
        </g>
    </g>
</svg>