<?xml version="1.0" encoding="UTF-8"?>
<svg width="785px" height="640px" viewBox="0 0 785 640" version="1.1" xmlns="http://www.w3.org/2000/svg" xmlns:xlink="http://www.w3.org/1999/xlink">
    <!-- Generator: Sketch 63.1 (92452) - https://sketch.com -->
    <title>Logo</title>
    <desc>Created with Sketch.</desc>
    <g id="Page-1" stroke="none" stroke-width="1" fill="none" fill-rule="evenodd">
        <g id="Artboard" transform="translate(-444.000000, -371.000000)" fill="#1A1919">
            <g id="Logo" transform="translate(444.000000, 371.000000)">
                <path d="M269.850675,315 C313.613901,315 352.993178,297.497828 381,268.190047 L350.371021,235.813081 C329.800487,256.372708 301.357616,269.06193 269.850675,269.06193 C207.708888,269.06193 160.449454,220.058585 160.449454,157.49609 C160.449454,94.9394603 207.708888,45.9380702 269.850675,45.9380702 C301.357616,45.9380702 330.242401,58.6272916 350.80707,79.186919 L380.563952,46.3740117 C352.993178,17.5021721 313.613901,0 269.850675,0 C177.07991,0 111,70.4387653 111,157.49609 C111,244.561235 177.07991,315 269.850675,315" id="Fill-52"></path>
                <polyline id="Fill-55" points="215 425.582672 45.999307 425.582672 46.0718487 162 0 162 0 469 215 469"></polyline>
                <path d="M402.315537,337 C427.547427,337 448,357.39736 448,382.556772 L448,382.556772 L448,492.443228 C448,517.604593 427.547427,538 402.315537,538 L402.315537,538 L348.098401,538 C291.132325,538 246,492.995775 246,437.499024 C246,382.00813 291.132325,337 348.098401,337 L348.098401,337 Z M354.922125,378 L354.075912,378 C321.346494,378 295,404.352384 295,437.498037 C295,470.227454 321.346494,497 354.075912,497 L354.075912,497 L354.922125,497 C387.645653,497 414,469.799439 414,437.498037 C414,404.774509 387.645653,378 354.922125,378 L354.922125,378 Z" id="Combined-Shape"></path>
                <path d="M503.435975,53 C563.073424,53 610,99.3742995 610,157.99609 C610,216.625701 563.073424,263 503.435975,263 L503.435975,263 L502.562066,263 C443.361571,263 396,216.625701 396,157.99609 C396,99.3742995 443.361571,53 502.562066,53 L502.562066,53 Z M502.633821,139 L502.370144,139 C492.191823,139 484,147.192262 484,157.5 C484,167.676884 492.191823,176 502.370144,176 L502.370144,176 L502.633821,176 C512.808177,176 521,167.542064 521,157.5 C521,147.325099 512.808177,139 502.633821,139 L502.633821,139 Z" id="Combined-Shape"></path>
                <path d="M504.225465,333 C516.204495,333 525.911335,342.692777 525.911335,354.65687 L525.911335,354.65687 L525.911335,416.595793 C525.911335,428.557927 535.618175,438.254623 547.595242,438.254623 L547.595242,438.254623 L583.000583,438.254623 C658.979614,438.254623 715.407612,522.118898 664.518811,602.185235 C651.248676,623.064096 619.85989,640 595.097343,640 L595.097343,640 L503.68587,640 C491.708802,640 482,630.305263 482,618.34313 L482,618.34313 L482,355.195793 C482,342.935782 491.952111,333 504.225465,333 Z M583.766932,502 L583.233068,502 C562.606694,502 546,518.609092 546,539.500981 C546,560.127895 562.606694,577 583.233068,577 L583.233068,577 L583.766932,577 C604.38938,577 621,559.858993 621,539.500981 C621,518.877993 604.38938,502 583.766932,502 L583.766932,502 Z" id="Combined-Shape"></path>
                <path d="M678.437934,228 C738.077343,228 785,274.374299 785,332.99609 C785,391.625701 738.077343,438 678.437934,438 L678.437934,438 L677.565985,438 C618.363531,438 571,391.625701 571,332.99609 C571,274.374299 618.363531,228 677.565985,228 L677.565985,228 Z M678.491914,264 L677.510042,264 C639.555396,264 609,294.561264 609,333.000978 C609,370.953667 639.555396,402 677.510042,402 L677.510042,402 L678.491914,402 C716.438736,402 747,370.456863 747,333.000978 C747,295.0522 716.438736,264 678.491914,264 L678.491914,264 Z" id="Combined-Shape"></path>
            </g>
        </g>
    </g>
</svg>